<svg xmlns="http://www.w3.org/2000/svg" viewBox="0 0 56.9 56.27"><defs><style>.cls-1{fill:#26aae0;}</style></defs><title>Asset 1</title><g id="Layer_2" data-name="Layer 2"><g id="Layer_1-2" data-name="Layer 1"><path class="cls-1" d="M56.64,54.89c-.24-.22-.48-.43-.7-.66Q44.53,42.83,33.11,31.42a1.21,1.21,0,0,1-.34-1.7,4,4,0,0,0-1.38-5.1,4.12,4.12,0,0,0-5.2.29,4.19,4.19,0,0,0-.9,5.13,4.12,4.12,0,0,0,4.91,2,1.22,1.22,0,0,1,1.46.31q11.46,11.53,23,23a1,1,0,0,1,.47.81,41.33,41.33,0,0,0-5.34,0c-3.27.44-5.61-.71-7.79-3.18-3.24-3.68-6.87-7-10.32-10.54A6.46,6.46,0,0,0,29.5,41c-4.65-1.93-9.27-3.92-13.91-5.84a1.27,1.27,0,0,1-1-1.36,4.07,4.07,0,0,0-3.33-4,4.16,4.16,0,0,0-4.76,2.56A4.23,4.23,0,0,0,8,37.29a4.08,4.08,0,0,0,5.36-.45,1,1,0,0,1,1.34-.24q7.22,3.07,14.45,6.11a4.19,4.19,0,0,1,1.34,1L42,55.27c.19.19.37.4.52.58-.11.32-.33.29-.52.28-5.43-.06-10.87.18-16.3-.13C13.71,55.32,2.4,45.17.47,33.4c-1.54-9.35.67-17.62,7.27-24.53A27.83,27.83,0,0,1,29.83,0,28.32,28.32,0,0,1,56.66,25.11c.47,4.58.1,9.19.18,13.78,0,1.87,0,3.75,0,5.6-.37.16-.48-.12-.64-.27-3-2.95-6-5.91-9-8.85a1.91,1.91,0,0,1-.66-1.57c.15-3.63.25-7.26.42-10.9a1.88,1.88,0,0,0-.7-1.54c-3.08-3-6.13-6.08-9.22-9.1a1.32,1.32,0,0,1-.42-1.65,4.09,4.09,0,0,0-1.82-5,4.19,4.19,0,0,0-5.53,6,4.08,4.08,0,0,0,5,1.42,1.15,1.15,0,0,1,1.53.26q4.27,4.3,8.61,8.52a2.13,2.13,0,0,1,.72,1.79c-.13,3.55-.18,7.11-.31,10.66a2.13,2.13,0,0,0,.7,1.77c3.55,3.46,7,7,10.59,10.45a2.08,2.08,0,0,1,.71,1.67c0,1.92,0,3.84,0,5.76C56.83,54.28,57,54.62,56.64,54.89Z"/><path class="cls-1" d="M31.44,28A2.45,2.45,0,0,1,29,30.51a2.49,2.49,0,0,1-2.46-2.44A2.54,2.54,0,0,1,29,25.55,2.5,2.5,0,0,1,31.44,28Z"/><path class="cls-1" d="M32.78,11.74a2.48,2.48,0,1,1-.1-4.95,2.48,2.48,0,1,1,.1,5Z"/><path class="cls-1" d="M10.41,31.48a2.4,2.4,0,0,1,2.51,2.34,2.49,2.49,0,0,1-2.49,2.52A2.41,2.41,0,0,1,8,33.84,2.36,2.36,0,0,1,10.41,31.48Z"/></g></g></svg>