<?xml version="1.0" encoding="UTF-8" standalone="no"?>
<!-- Created with Inkscape (http://www.inkscape.org/) -->

<svg
   width="20mm"
   height="20mm"
   viewBox="0 0 20 20"
   version="1.1"
   id="svg5"
   xmlns="http://www.w3.org/2000/svg"
   xmlns:svg="http://www.w3.org/2000/svg">
  <defs
     id="defs2" />
  <g
     id="layer1">
    <path
       id="rect2655"
       style="fill:#000000;fill-opacity:1;stroke:#000000;stroke-width:0.186684;stroke-linecap:square;stroke-linejoin:miter;stroke-dasharray:none;stroke-opacity:1;paint-order:normal"
       d="m 9.0045472,8.0045472 a 1,1 0 0 1 -1,1 h -4 a 1,1 0 0 1 0,-2 h 1.586 l -2.293,-2.293 a 1,1 0 0 1 1.414,-1.414 l 2.293,2.293 v -1.586 a 1,1 0 0 1 2,0 z M 15.968514,7.0314859 a 1,1 0 1 1 0,2 h -4 a 1,1 0 0 1 -1,-1 v -4 a 1,1 0 1 1 2,0 v 1.586 l 2.293,-2.293 a 1,1 0 1 1 1.414,1.414 l -2.293,2.293 z M 9.0045472,15.995453 a 1,1 0 1 1 -2,0 v -1.586 l -2.293,2.293 a 1,1 0 0 1 -1.414,-1.414 l 2.293,-2.293 h -1.586 a 1,1 0 1 1 0,-2 h 4 a 1,1 0 0 1 1,1 z m 2.9909058,1 a 1,1 0 0 1 -1,-1 v -4 a 1,1 0 0 1 1,-1 h 4 a 1,1 0 1 1 0,2 h -1.586 l 2.293,2.293 a 1,1 0 0 1 -1.414,1.414 l -2.293,-2.293 v 1.586 a 1,1 0 0 1 -1,1 z" />
  </g>
</svg>
