<?xml version="1.0" encoding="UTF-8" standalone="no"?>
<!-- Created with Inkscape (http://www.inkscape.org/) -->

<svg
   width="20mm"
   height="20mm"
   viewBox="0 0 20 20"
   version="1.1"
   id="svg5"
   inkscape:version="1.2 (dc2aedaf03, 2022-05-15)"
   sodipodi:docname="circle.svg"
   xmlns:inkscape="http://www.inkscape.org/namespaces/inkscape"
   xmlns:sodipodi="http://sodipodi.sourceforge.net/DTD/sodipodi-0.dtd"
   xmlns="http://www.w3.org/2000/svg"
   xmlns:svg="http://www.w3.org/2000/svg">
  <sodipodi:namedview
     id="namedview7"
     pagecolor="#ffffff"
     bordercolor="#666666"
     borderopacity="1.0"
     inkscape:showpageshadow="2"
     inkscape:pageopacity="0.0"
     inkscape:pagecheckerboard="0"
     inkscape:deskcolor="#d1d1d1"
     inkscape:document-units="mm"
     showgrid="false"
     inkscape:zoom="6.7277216"
     inkscape:cx="17.242093"
     inkscape:cy="41.618844"
     inkscape:window-width="1920"
     inkscape:window-height="1057"
     inkscape:window-x="-8"
     inkscape:window-y="-8"
     inkscape:window-maximized="1"
     inkscape:current-layer="layer1" />
  <defs
     id="defs2" />
  <g
     inkscape:label="Layer 1"
     inkscape:groupmode="layer"
     id="layer1">
    <path
       id="path12765"
       style="stroke:#000000;stroke-width:0.267231;stroke-linecap:square"
       d="M 9.9999064 2.633431 A 7.3663845 7.3663845 0 0 0 2.633431 9.9999064 A 7.3663845 7.3663845 0 0 0 9.9999064 17.366382 A 7.3663845 7.3663845 0 0 0 17.366382 9.9999064 A 7.3663845 7.3663845 0 0 0 9.9999064 2.633431 z M 9.9999064 4.7206421 A 5.279242 5.279242 0 0 1 15.279171 9.9999064 A 5.279242 5.279242 0 0 1 9.9999064 15.279171 A 5.279242 5.279242 0 0 1 4.7206421 9.9999064 A 5.279242 5.279242 0 0 1 9.9999064 4.7206421 z " />
  </g>
</svg>
