<?xml version="1.0" encoding="UTF-8" standalone="no"?>
<svg
   width="20"
   height="20"
   fill="currentColor"
   class="bi bi-paint-bucket"
   viewBox="0 0 20 20"
   version="1.1"
   id="svg35462"
   sodipodi:docname="paint-bucket.svg"
   inkscape:version="1.2 (dc2aedaf03, 2022-05-15)"
   xmlns:inkscape="http://www.inkscape.org/namespaces/inkscape"
   xmlns:sodipodi="http://sodipodi.sourceforge.net/DTD/sodipodi-0.dtd"
   xmlns="http://www.w3.org/2000/svg"
   xmlns:svg="http://www.w3.org/2000/svg">
  <sodipodi:namedview
     id="namedview5"
     pagecolor="#ffffff"
     bordercolor="#666666"
     borderopacity="1.0"
     inkscape:showpageshadow="2"
     inkscape:pageopacity="0.0"
     inkscape:pagecheckerboard="0"
     inkscape:deskcolor="#d1d1d1"
     showgrid="false"
     inkscape:zoom="33.37544"
     inkscape:cx="7.1459732"
     inkscape:cy="10.127207"
     inkscape:window-width="1920"
     inkscape:window-height="1057"
     inkscape:window-x="-8"
     inkscape:window-y="-8"
     inkscape:window-maximized="1"
     inkscape:current-layer="svg35462" />
  <defs
     id="defs35466" />
  <path
     id="path35460"
     style="stroke-width:1.10631"
     d="m 9.8554688,3.0014844 c -0.1056786,-0.0043 -0.2193177,3.094e-4 -0.3359376,0.019531 -0.2327103,0.038356 -0.4773087,0.1397148 -0.6855468,0.34375 a 0.12354945,0.12354945 0 0 0 -0.00391,0 L 8.5878906,3.6030469 a 0.12354945,0.12354945 0 0 0 -0.00195,0.00195 C 6.3742728,5.7393049 7.0705049,5.1067553 2.5371094,9.597188 c -0.4177863,0.413827 -0.399259,0.968454 -0.3320313,1.310547 0.071537,0.364601 0.2322867,0.732978 0.4355469,1.09375 0.4086023,0.728813 1.0590205,1.553779 1.8613281,2.349609 0.8034838,0.795868 1.6377551,1.441249 2.3730469,1.845703 0.3634224,0.200892 0.7354193,0.360873 1.1015625,0.431641 5.943e-4,1.15e-4 0.00136,-1.14e-4 0.00195,0 a 0.12354945,0.12354945 0 0 0 0,0.002 c 0.3414285,0.06454 0.8925433,0.07961 1.3105469,-0.328125 a 0.12354945,0.12354945 0 0 0 0.00977,-0.0039 L 15.041017,10.60896 c -0.005,0.09009 -0.0016,0.149978 -0.01367,0.271484 -0.03332,0.321279 -0.07633,0.747124 -0.08203,1.324219 a 0.12354945,0.12354945 0 0 0 0,0.002 c 0,0 0,0.002 0,0.002 v 0.134766 a 0.12354945,0.12354945 0 0 0 0.002,0.02344 c 2.81e-4,0.0015 0.0016,0.0025 0.002,0.0039 0.07096,0.837918 0.767572,1.314454 1.439453,1.314454 0.671881,0 1.368491,-0.476536 1.439453,-1.314454 3.02e-4,-0.0014 0.0017,-0.0025 0.002,-0.0039 a 0.12354945,0.12354945 0 0 0 0.002,-0.02344 v -0.05859 -0.002 -0.002 c 9.26e-4,-0.0464 1.88e-4,-0.09375 -0.0039,-0.144531 v -0.0039 C 17.76296,10.68973 17.042154,9.027566 15.701172,8.1030469 15.635908,7.9542441 15.565509,7.8058606 15.484375,7.6616406 15.074861,6.9340598 14.425015,6.1102868 13.621094,5.3139844 12.817142,4.517652 11.981697,3.8726904 11.246094,3.4682813 10.88396,3.2692604 10.515005,3.1107054 10.150391,3.0385937 c -0.0014,-2.706e-4 -0.0025,-0.00168 -0.0039,-0.00195 a 0.12354945,0.12354945 0 0 0 -0.002,-0.00195 C 10.058797,3.018481 9.9611473,3.0057825 9.8554688,3.0014844 Z m 0.8359372,2.2167969 c 0.497964,0.3157727 1.07536,0.7548416 1.671875,1.3457031 0.321662,0.3186134 0.575288,0.6268689 0.814453,0.9316406 -0.132205,0.00589 -0.264273,0.011776 -0.40039,0.035156 C 12.525537,7.3189937 12.282041,7.1017745 12.048828,6.870625 11.453228,6.2806707 11.009209,5.7107277 10.691406,5.2182813 Z M 8.9238281,5.7632031 c 0.00155,0.00281 0.00231,0.00498 0.00391,0.00781 0.4094992,0.7287176 1.0592761,1.5532234 1.8632819,2.3496094 0.802474,0.7959945 1.636515,1.4412105 2.373046,1.8457035 L 8.2324219,14.855001 C 8.1228796,14.826153 7.9715101,14.778459 7.7382812,14.649922 7.195376,14.350255 6.4769833,13.805674 5.7617188,13.097188 5.0472104,12.389451 4.4954641,11.680382 4.1933594,11.14211 c -2.192e-4,-3.91e-4 2.189e-4,-0.0016 0,-0.002 a 0.12354945,0.12354945 0 0 0 0,-0.002 C 4.0653358,10.909263 4.0146587,10.75836 3.9863281,10.653829 5.4025963,9.226563 6.292091,8.3326426 6.7617188,7.8628125 7.2547944,7.3695244 7.3905309,7.242492 7.3984375,7.2358594 c 0.00471,-0.00395 0.0288,-0.00829 0.2382813,-0.2070313 0.1681775,-0.1595559 0.6554501,-0.6415309 1.2871093,-1.265625 z" />
</svg>
